Patient5_TMGait_0pt45_1_left_03_GRF.mot
version=1
nRows=52
nColumns=19
inDegrees=no
endheader
time	F1x	F1y	F1z	M1x	M1y	M1z	F2x	F2y	F2z	M2x	M2y	M2z	EC1x	EC1y	EC1z	EC2x	EC2y	EC2z
3.38	14.2687	86.7126	-16.5208	-30.5047	18.5695	77.8388	-24.2622	731.441	-28.9152	269.412	43.8757	743.7286	-0.0592	0.0182	-0.0073	-0.0462	0.0165	0.9585
3.3972	8.9344	68.8007	-10.82	-24.5984	11.9745	60.0703	-20.8363	763.8768	-30.906	281.42	42.4063	766.0146	-0.0592	0.0182	-0.0073	-0.0462	0.0165	0.9585
3.4144	4.0237	50.1431	-6.0528	-18.2331	6.3017	42.5628	-15.2484	800.0983	-34.2945	294.673	41.7491	791.4568	-0.0592	0.0182	-0.0073	-0.0462	0.0165	0.9585
3.4316	0.36773	33.032	-2.6024	-12.2191	2.166	27.2757	-8.3386	835.6978	-39.0132	307.4841	42.2332	816.5557	-0.0592	0.0182	-0.0073	-0.0462	0.0165	0.9585
3.4489	-1.5565	19.0213	-0.45592	-7.1701	-0.2712	15.2649	-1.7161	866.5093	-44.3938	318.3357	43.7684	837.8062	-0.0592	0.0182	-0.0073	-0.0462	0.0165	0.9585
3.4661	-1.9438	8.9318	0.60443	-3.4595	-1.2602	6.9131	3.0749	888.938	-49.4832	325.9804	45.9428	852.0422	-0.0592	0.0182	-0.0073	-0.0462	0.0165	0.9585
3.4833	-1.5343	2.7786	0.92957	-1.1518	-1.3569	2.0097	5.4564	900.4656	-53.5385	329.5691	48.1943	856.9128	-0.0592	0.0182	-0.0073	-0.0462	0.0165	0.9585
3.5005	-0.87443	-0.25286	0.86186	0.01635	-1.0444	-0.24177	5.9373	900.4781	-56.3259	328.9125	50.0544	851.7054	-0.0592	0.0182	-0.0073	-0.0462	0.0165	0.9585
3.5177	-0.24773	-1.2122	0.63571	0.41457	-0.62044	-0.80314	5.6004	890.581	-57.9966	324.6124	51.2184	837.7071	-0.0592	0.0182	-0.0073	-0.0462	0.0165	0.9585
3.5349	0.23195	-1.0295	0.37766	0.37782	-0.22428	-0.48738	5.4647	873.9907	-58.7854	317.8616	51.5037	817.7342	-0.0592	0.0182	-0.0073	-0.0462	0.0165	0.9585
3.5521	0.53715	-0.40771	0.17199	0.16586	0.067577	0.12311	6.2298	854.5187	-58.9117	310.0795	50.8498	795.1573	-0.0592	0.0182	-0.0073	-0.0462	0.0165	0.9585
3.5694	0.69383	0.17477	0.065073	-0.037974	0.21515	0.63181	8.2877	835.8517	-58.5906	302.647	49.3246	773.2079	-0.0592	0.0182	-0.0073	-0.0462	0.0165	0.9585
3.5866	0.74393	0.40205	0.079565	-0.11065	0.20127	0.75799	11.7291	821.1075	-58.0383	296.7322	47.1126	754.5803	-0.0592	0.0182	-0.0073	-0.0462	0.0165	0.9585
3.6038	0.71461	0.058357	0.24397	0.033861	0.0051246	0.30017	16.3493	812.4139	-57.4259	293.1286	44.459	741.0907	-0.0592	0.0182	-0.0073	-0.0462	0.0165	0.9585
3.621	0.61403	-1.0011	0.55925	0.45061	-0.37681	-0.89867	21.7124	810.6528	-56.8569	292.1574	41.6321	733.4953	-0.0592	0.0182	-0.0073	-0.0462	0.0165	0.9585
3.6382	0.44831	-2.8123	0.97857	1.1507	-0.90601	-2.8987	27.2689	815.4993	-56.357	293.6756	38.8674	731.5466	-0.0592	0.0182	-0.0073	-0.0462	0.0165	0.9585
3.6554	0.21798	-5.1779	1.3973	2.0554	-1.4711	-5.4994	32.4803	825.6285	-55.908	297.1497	36.3503	734.1802	-0.0592	0.0182	-0.0073	-0.0462	0.0165	0.9585
3.6726	-0.072176	-7.4629	1.6105	2.9176	-1.8365	-8.0205	36.9355	838.9681	-55.4967	301.7638	34.2248	739.7177	-0.0592	0.0182	-0.0073	-0.0462	0.0165	0.9585
3.6899	-0.38235	-8.3538	1.2649	3.2214	-1.5887	-9.0598	40.4258	852.9557	-55.1288	306.535	32.5745	746.0676	-0.0592	0.0182	-0.0073	-0.0462	0.0165	0.9585
3.7071	-0.58926	-5.6483	-0.13489	2.0922	-0.1201	-6.2683	42.8734	864.893	-54.7951	310.4539	31.4118	751.0278	-0.0592	0.0182	-0.0073	-0.0462	0.0165	0.9585
3.7243	-0.45434	3.8005	-3.1798	-1.7164	3.3376	3.7737	44.2113	872.2882	-54.4453	312.6136	30.6863	752.5883	-0.0592	0.0182	-0.0073	-0.0462	0.0165	0.9585
3.7415	0.38707	23.7739	-8.4043	-9.6872	9.5394	25.2108	44.3107	872.9637	-53.9949	312.238	30.3407	749.007	-0.0592	0.0182	-0.0073	-0.0462	0.0165	0.9585
3.7587	2.3867	57.5715	-15.9302	-23.0871	18.8154	61.7197	43.032	865.0787	-53.353	308.6838	30.3197	738.8304	-0.0592	0.0182	-0.0073	-0.0462	0.0165	0.9585
3.7759	5.8534	105.8728	-24.8817	-42.1189	30.3229	114.1799	40.3115	847.2981	-52.4344	301.5057	30.5556	721.0004	-0.0592	0.0182	-0.0073	-0.0462	0.0165	0.9585
3.7931	9.3396	164.5569	-32.7691	-65.0466	40.7534	178.2565	36.2967	819.1134	-51.1431	290.5799	30.9095	695.0791	-0.0592	0.0182	-0.0073	-0.0462	0.0165	0.9585
3.8104	9.0745	225.183	-35.6156	-88.4081	44.3193	245.0681	31.3887	780.9836	-49.3677	276.1559	31.1526	661.371	-0.0592	0.0182	-0.0073	-0.0462	0.0165	0.9585
3.8276	4.3805	279.6129	-31.5276	-108.9547	38.606	306.0099	26.1569	734.0764	-46.9983	258.7455	31.0088	620.7085	-0.0592	0.0182	-0.0073	-0.0462	0.0165	0.9585
3.8448	-2.6594	322.4907	-21.5913	-124.6934	25.5825	354.9967	21.2013	680.0282	-43.9271	239.0121	30.2017	574.2886	-0.0592	0.0182	-0.0073	-0.0462	0.0165	0.9585
3.862	-10.0691	354.1154	-9.2518	-135.9519	9.8343	391.8455	16.956	620.9675	-40.0082	217.7669	28.4938	523.7612	-0.0592	0.0182	-0.0073	-0.0462	0.0165	0.9585
3.8792	-17.1469	380.7066	2.0245	-145.3353	-4.5455	423.1902	13.5524	559.3751	-35.0961	195.9166	25.7562	471.1803	-0.0592	0.0182	-0.0073	-0.0462	0.0165	0.9585
3.8964	-23.8037	409.112	9.7767	-155.64	-14.8343	456.4603	10.8152	497.7796	-29.1141	174.3478	22.0053	418.742	-0.0592	0.0182	-0.0073	-0.0462	0.0165	0.9585
3.9136	-29.7375	442.7382	13.8515	-168.216	-20.7792	495.1473	8.4901	438.5567	-22.2012	153.848	17.424	368.5134	-0.0592	0.0182	-0.0073	-0.0462	0.0165	0.9585
3.9309	-34.5398	481.5602	15.9044	-182.9671	-24.0761	538.8988	6.4137	383.6293	-14.8558	135.001	12.4227	322.1259	-0.0592	0.0182	-0.0073	-0.0462	0.0165	0.9585
3.9481	-38.1968	523.9882	17.9395	-199.1224	-26.9528	585.7507	4.589	333.9837	-7.8655	118.0396	7.5689	280.3772	-0.0592	0.0182	-0.0073	-0.0462	0.0165	0.9585
3.9653	-41.0167	568.4349	21.3292	-215.9204	-31.042	633.8481	3.08	289.4989	-2.0525	102.817	3.439	243.1076	-0.0592	0.0182	-0.0073	-0.0462	0.0165	0.9585
3.9825	-43.2928	613.7255	26.5153	-232.8252	-36.9045	681.8119	1.8661	249.3369	1.9755	88.9673	0.49243	209.5427	-0.0592	0.0182	-0.0073	-0.0462	0.0165	0.9585
3.9997	-45.158	658.8116	32.9592	-249.4468	-43.9628	728.4274	0.84646	212.5794	4.0017	76.1414	-1.0593	178.8494	-0.0592	0.0182	-0.0073	-0.0462	0.0165	0.9585
4.0169	-46.6358	702.2239	39.4484	-265.3223	-50.9022	772.1154	-0.1568	178.7373	4.2178	64.1849	-1.2648	150.5783	-0.0592	0.0182	-0.0073	-0.0462	0.0165	0.9585
4.0341	-47.6768	742.0391	44.8066	-279.8457	-56.4665	810.9194	-1.3031	147.8434	3.1236	53.1573	-0.40515	124.7219	-0.0592	0.0182	-0.0073	-0.0462	0.0165	0.9585
4.0514	-48.1442	776.2916	48.5295	-292.3693	-60.1096	842.9061	-2.7022	120.3236	1.353	43.2682	1.1152	101.6004	-0.0592	0.0182	-0.0073	-0.0462	0.0165	0.9585
4.0686	-47.8719	803.5918	50.7399	-302.4091	-61.932	866.7804	-4.4011	96.6873	-0.53627	34.7481	2.9069	81.6328	-0.0592	0.0182	-0.0073	-0.0462	0.0165	0.9585
4.0858	-46.659	823.4569	51.7957	-309.7706	-62.2625	882.1915	-6.4164	77.2017	-2.2157	27.725	4.7226	65.0751	-0.0592	0.0182	-0.0073	-0.0462	0.0165	0.9585
4.103	-44.3409	836.2209	51.9863	-314.5318	-61.3648	889.6217	-8.7476	61.7515	-3.5648	22.1757	6.4601	51.8673	-0.0592	0.0182	-0.0073	-0.0462	0.0165	0.9585
4.1202	-40.9145	842.6243	51.5675	-316.9163	-59.4957	889.9921	-11.3532	49.9229	-4.5913	17.9516	8.0962	41.7107	-0.0592	0.0182	-0.0073	-0.0462	0.0165	0.9585
4.1374	-36.5568	843.6377	50.7566	-317.2496	-56.918	884.4889	-14.0415	41.0829	-5.345	14.8154	9.5828	34.0866	-0.0592	0.0182	-0.0073	-0.0462	0.0165	0.9585
4.1546	-31.5556	840.5704	49.6722	-316.0156	-53.8353	874.656	-16.43	34.4443	-5.8285	12.4738	10.7686	28.3451	-0.0592	0.0182	-0.0073	-0.0462	0.0165	0.9585
4.1719	-26.1897	835.0637	48.4144	-313.8486	-50.4355	862.3356	-18.0177	29.1565	-6.0044	10.6124	11.4346	23.7763	-0.0592	0.0182	-0.0073	-0.0462	0.0165	0.9585
4.1891	-20.6845	828.9069	47.0776	-311.4484	-46.8889	849.4474	-18.2993	24.4138	-5.8211	8.9339	11.3531	19.73	-0.0592	0.0182	-0.0073	-0.0462	0.0165	0.9585
4.2063	-15.1619	823.7148	45.6896	-309.4477	-43.266	837.6607	-16.9453	19.6412	-5.2397	7.2241	10.3696	15.7615	-0.0592	0.0182	-0.0073	-0.0462	0.0165	0.9585
4.2235	-9.6925	820.6825	44.2335	-308.3168	-39.5818	828.169	-14.0692	14.7417	-4.3029	5.4405	8.5527	11.7932	-0.0592	0.0182	-0.0073	-0.0462	0.0165	0.9585
4.2407	-4.3505	820.4104	42.6916	-308.2868	-35.8529	821.5512	-10.5847	10.4181	-3.2545	3.822	6.4175	8.3787	-0.0592	0.0182	-0.0073	-0.0462	0.0165	0.9585
4.2579	0.72586	822.8395	41.0647	-309.3179	-32.1374	817.7457	-8.1496	7.9989	-2.5655	2.8247	4.9229	6.6054	-0.0592	0.0182	-0.0073	-0.0462	0.0165	0.9585
